<svg version="1.1" xmlns="http://www.w3.org/2000/svg" xmlns:xlink="http://www.w3.org/1999/xlink" preserveAspectRatio="xMidYMid meet" viewBox="4.1733977385050025e-14 0 192.0872011529428 187.94719626168225" width="192.09" height="187.95"><defs><path d="M126.76 9.3L125.71 13.76L124.7 18.1L123.7 22.31L122.74 26.4L121.8 30.36L120.88 34.19L119.99 37.9L119.13 41.49L118.29 44.94L117.48 48.28L116.69 51.48L115.93 54.56L115.19 57.52L114.48 60.35L113.8 63.05L113.14 65.63L112.5 68.08L111.9 70.41L111.32 72.61L110.76 74.68L110.23 76.63L109.72 78.46L109.24 80.16L108.79 81.73L108.36 83.18L107.7 85.2L106.96 87.11L106.15 88.93L105.27 90.66L104.35 92.32L103.38 93.9L102.37 95.43L101.33 96.9L100.26 98.34L99.18 99.74L98.1 101.13L97.01 102.5L95.93 103.87L94.86 105.25L93.82 106.64L92.81 108.06L92.47 108.58L85.93 128.04L88.11 128.09L90.17 128.26L92.11 128.53L93.93 128.9L95.64 129.37L97.24 129.92L98.74 130.56L100.13 131.27L101.42 132.06L102.62 132.91L103.73 133.83L104.75 134.8L105.68 135.82L106.53 136.89L107.3 137.99L108 139.13L108.63 140.3L109.19 141.49L109.68 142.7L110.11 143.93L110.49 145.15L110.81 146.39L111.08 147.61L111.3 148.83L111.48 150.03L111.61 151.22L111.71 152.37L111.78 153.5L111.81 154.59L111.82 155.64L111.81 156.64L111.77 157.59L111.72 158.47L111.65 159.3L111.58 160.06L111.49 160.74L111.41 161.34L111.32 161.86L111.24 162.29L111.17 162.62L111.08 162.93L110.98 163.32L110.86 163.77L110.71 164.28L110.53 164.85L110.33 165.47L110.11 166.14L109.86 166.86L109.58 167.61L109.27 168.4L108.93 169.22L108.56 170.07L108.16 170.94L107.72 171.83L107.26 172.74L106.75 173.65L106.22 174.57L105.65 175.5L105.04 176.42L104.39 177.34L103.7 178.24L102.98 179.13L102.21 180L101.41 180.85L100.56 181.67L99.67 182.46L98.73 183.22L97.75 183.93L96.73 184.6L95.66 185.22L94.54 185.79L93.37 186.3L92.15 186.75L90.89 187.14L89.57 187.46L88.2 187.7L86.78 187.86L85.31 187.95L83.78 187.94L82.19 187.85L80.61 187.68L79.1 187.43L77.65 187.13L76.27 186.76L74.94 186.32L73.68 185.84L72.48 185.29L71.34 184.7L70.25 184.05L69.23 183.35L68.26 182.61L67.34 181.83L66.48 181L65.67 180.14L64.91 179.24L64.2 178.31L63.55 177.35L62.94 176.36L62.38 175.34L61.87 174.3L61.4 173.24L60.97 172.16L60.59 171.06L60.26 169.95L59.96 168.83L59.7 167.7L59.49 166.56L59.31 165.42L59.17 164.28L59.06 163.14L58.99 162.01L58.96 160.87L58.95 159.75L58.98 158.64L59.04 157.54L59.13 156.46L59.25 155.4L59.39 154.35L59.57 153.33L59.76 152.34L59.91 151.66L60.06 150.95L60.23 150.2L60.41 149.42L60.6 148.59L60.79 147.73L61 146.83L61.22 145.89L61.45 144.91L61.69 143.9L61.94 142.84L62.2 141.75L62.47 140.62L62.76 139.46L63.05 138.25L63.35 137.01L63.67 135.73L63.99 134.41L64.32 133.05L64.67 131.66L65.03 130.23L65.39 128.76L65.77 127.25L66.16 125.7L66.55 124.12L66.96 122.49L67.38 120.83L67.81 119.14L68.25 117.4L68.7 115.62L69.16 113.81L69.63 111.96L70.11 110.07L70.61 108.15L71.11 106.18L71.62 104.18L72.15 102.14L72.68 100.06L73.23 97.95L73.78 95.79L74.25 93.5L74.71 91.23L75.18 89L75.64 86.81L76.1 84.65L76.56 82.52L77.02 80.42L77.48 78.36L77.94 76.33L78.4 74.33L78.85 72.36L79.31 70.43L79.76 68.54L80.21 66.67L80.66 64.84L81.11 63.05L81.56 61.28L82 59.55L82.45 57.86L82.89 56.19L83.34 54.56L83.78 52.96L84.22 51.4L84.66 49.87L85.1 48.37L85.54 46.91L85.97 45.48L86.41 44.08L86.84 42.72L87.28 41.38L87.71 40.09L88.14 38.82L88.57 37.59L88.99 36.39L89.42 35.23L89.85 34.1L90.27 33L90.7 31.94L91.12 30.9L91.54 29.91L91.97 28.93L92.43 27.97L92.92 27.02L93.43 26.07L93.96 25.15L94.53 24.23L95.11 23.32L95.73 22.43L96.37 21.55L97.03 20.68L97.72 19.82L98.44 18.97L99.18 18.14L99.95 17.31L100.74 16.5L101.56 15.7L102.4 14.91L103.27 14.14L104.17 13.37L105.09 12.62L106.04 11.88L107.01 11.14L108.01 10.43L109.03 9.72L110.08 9.02L111.16 8.34L112.26 7.67L113.39 7.01L114.54 6.36L115.72 5.72L116.93 5.1L118.16 4.49L119.41 3.88L120.69 3.29L122 2.72L123.33 2.15L124.69 1.59L126.08 1.05L127.49 0.52L128.92 0L127.83 4.71L126.76 9.3ZM86.43 141.12L85.36 141.46L84.3 141.92L83.28 142.48L82.29 143.14L81.35 143.9L80.44 144.74L79.58 145.67L78.78 146.69L78.03 147.78L77.35 148.94L76.73 150.17L76.19 151.46L75.72 152.82L75.34 154.22L75.04 155.68L74.84 157.16L74.73 158.61L74.72 160.04L74.81 161.45L74.98 162.81L75.24 164.13L75.58 165.41L76 166.63L76.5 167.79L77.07 168.89L77.72 169.92L78.43 170.87L79.21 171.74L80.05 172.52L80.95 173.21L81.9 173.79L82.91 174.27L83.97 174.64L85.07 174.9L86.2 175.03L87.32 175.03L88.43 174.91L89.53 174.67L90.6 174.32L91.65 173.87L92.68 173.3L93.66 172.64L94.61 171.89L95.52 171.04L96.37 170.11L97.18 169.1L97.92 168.01L98.61 166.85L99.22 165.62L99.77 164.32L100.23 162.97L100.62 161.56L100.92 160.1L101.12 158.63L101.22 157.17L101.23 155.74L101.15 154.34L100.98 152.98L100.72 151.65L100.38 150.38L99.96 149.16L99.46 147.99L98.88 146.9L98.24 145.87L97.53 144.92L96.75 144.05L95.91 143.27L95.01 142.58L94.06 141.99L93.05 141.51L91.99 141.14L90.88 140.89L89.76 140.76L88.64 140.76L87.53 140.88L86.43 141.12ZM78.4 102.58L77.29 103.29L76.36 104.22L75.65 105.33L75.2 106.59L75.04 107.97L75.2 109.34L75.65 110.61L76.36 111.72L77.29 112.65L78.4 113.36L79.66 113.81L81.04 113.97L82.41 113.81L83.67 113.36L84.79 112.65L85.72 111.72L86.43 110.61L86.88 109.34L87.04 107.97L86.88 106.59L86.43 105.33L85.72 104.22L84.79 103.29L83.67 102.58L82.41 102.13L81.04 101.97L79.66 102.13L78.4 102.58Z" id="dbAWP0mWQ"></path><path d="" id="b1Z0OIVIEr"></path><path d="M34.84 72.47L36.7 72.59L38.59 72.77L39.84 72.92L41.05 73.1L42.23 73.31L43.38 73.55L44.48 73.83L45.55 74.13L46.58 74.47L47.58 74.83L48.54 75.23L49.46 75.65L50.35 76.11L51.2 76.6L52.01 77.12L52.79 77.67L53.53 78.25L54.24 78.86L54.9 79.5L55.54 80.17L56.13 80.87L56.69 81.61L57.21 82.37L57.69 83.17L58.14 83.99L58.56 84.85L58.93 85.73L59.27 86.65L59.57 87.6L59.84 88.58L60.07 89.59L60.26 90.63L60.42 91.7L60.54 92.8L60.62 93.93L60.67 95.1L60.68 96.29L60.65 97.51L60.59 98.77L65.59 101.27L65.29 102.2L65.01 103.11L64.73 103.99L64.47 104.85L64.21 105.69L63.96 106.5L63.72 107.28L63.49 108.04L63.27 108.78L63.05 109.49L62.85 110.17L62.65 110.83L62.46 111.47L62.28 112.08L62.11 112.66L61.95 113.22L61.8 113.76L61.66 114.27L61.52 114.76L61.39 115.22L61.28 115.66L61.17 116.07L61.07 116.46L60.98 116.82L60.89 117.16L60.82 117.47L60.76 117.76L60.7 118.02L60.65 118.26L60.61 118.47L60.58 118.66L60.56 118.82L60.55 118.96L60.55 119.08L60.55 119.16L60.56 119.23L60.59 119.27L60.56 119.31L60.41 119.36L60.13 119.42L59.75 119.48L59.25 119.54L58.64 119.61L57.94 119.68L57.15 119.76L56.28 119.84L55.33 119.91L54.3 119.99L53.21 120.08L52.05 120.16L50.84 120.24L49.59 120.32L48.29 120.39L46.96 120.47L45.59 120.55L44.2 120.62L42.8 120.68L41.38 120.75L39.96 120.81L38.53 120.86L37.12 120.91L35.71 120.95L34.33 120.98L32.97 121.01L31.64 121.03L30.35 121.04L29.1 121.04L27.9 121.04L26.76 121.02L25.68 120.99L24.66 120.96L23.72 120.91L22.86 120.84L22.09 120.77L21.35 120.67L20.61 120.55L19.86 120.41L19.1 120.23L18.33 120.03L17.56 119.79L16.8 119.53L16.03 119.24L15.26 118.92L14.49 118.57L13.73 118.19L12.97 117.78L12.22 117.34L11.47 116.87L10.74 116.36L10.02 115.82L9.31 115.25L8.62 114.65L7.94 114.01L7.28 113.33L6.63 112.63L6.01 111.89L5.41 111.11L4.83 110.29L4.28 109.44L3.75 108.56L3.25 107.63L2.78 106.67L2.34 105.67L1.93 104.64L1.55 103.56L1.21 102.45L0.91 101.29L0.64 100.1L0.42 98.86L0.23 97.59L0.09 96.27L0 94.95L0 93.66L0.07 92.4L0.22 91.17L0.44 89.98L0.73 88.82L1.09 87.69L1.53 86.6L2.03 85.54L2.6 84.52L3.23 83.54L3.93 82.59L4.7 81.69L5.52 80.82L6.41 79.99L7.35 79.19L8.35 78.44L9.41 77.73L10.53 77.06L11.7 76.44L12.92 75.85L14.19 75.31L15.51 74.81L16.89 74.36L18.31 73.95L19.77 73.59L21.28 73.27L22.84 73L24.44 72.78L26.08 72.6L27.75 72.48L29.47 72.4L31.22 72.37L33.01 72.39L34.84 72.47ZM189.92 75.13L188.82 77.2L187.7 79.21L186.57 81.14L185.43 83.01L184.27 84.8L183.11 86.52L181.93 88.18L180.74 89.76L179.53 91.27L178.31 92.72L177.08 94.09L175.84 95.39L174.58 96.63L173.31 97.79L172.03 98.88L170.74 99.9L169.43 100.86L168.11 101.74L166.77 102.55L165.43 103.29L164.07 103.96L162.7 104.56L161.32 105.1L159.92 105.56L158.51 105.95L157.09 106.27L155.64 106.55L154.15 106.84L152.63 107.11L151.07 107.39L149.47 107.67L147.83 107.94L146.15 108.21L144.43 108.47L142.68 108.74L140.89 109L139.06 109.26L137.19 109.51L135.28 109.77L133.34 110.02L131.35 110.27L129.33 110.51L127.27 110.76L125.17 111L123.04 111.24L120.86 111.47L118.65 111.71L116.4 111.94L114.11 112.17L111.78 112.39L109.42 112.61L107.01 112.84L104.57 113.05L102.09 113.27L103 112.06L103.9 110.85L104.76 109.65L105.61 108.46L106.43 107.28L107.22 106.1L107.99 104.92L108.74 103.76L109.46 102.6L110.16 101.44L110.84 100.3L111.49 99.16L112.11 98.02L112.71 96.89L113.29 95.77L113.84 94.66L114.37 93.55L114.88 92.44L115.36 91.35L115.81 90.26L116.24 89.17L116.65 88.1L117.03 87.03L117.39 85.96L117.73 84.9L118.04 83.85L118.33 82.81L118.59 81.77L192.09 70.77L191.01 72.98L189.92 75.13ZM28.23 82.45L26.73 82.68L25.29 82.99L23.89 83.38L22.56 83.84L21.29 84.38L20.09 84.98L18.97 85.65L17.92 86.38L16.97 87.16L16.1 88L15.34 88.89L14.67 89.82L14.12 90.79L13.67 91.8L13.35 92.85L13.15 93.92L13.09 95.02L13.15 96.12L13.35 97.19L13.67 98.24L14.12 99.25L14.67 100.22L15.34 101.15L16.1 102.04L16.97 102.88L17.92 103.66L18.97 104.39L20.09 105.06L21.29 105.66L22.56 106.2L23.89 106.66L25.29 107.05L26.73 107.36L28.23 107.58L29.76 107.72L31.34 107.77L32.91 107.72L34.45 107.58L35.94 107.36L37.39 107.05L38.78 106.66L40.11 106.2L41.38 105.66L42.58 105.06L43.71 104.39L44.75 103.66L45.71 102.88L46.57 102.04L47.34 101.15L48 100.22L48.56 99.25L49 98.24L49.32 97.19L49.52 96.12L49.59 95.02L49.52 93.92L49.32 92.85L49 91.8L48.56 90.79L48 89.82L47.34 88.89L46.57 88L45.71 87.16L44.75 86.38L43.71 85.65L42.58 84.98L41.38 84.38L40.11 83.84L38.78 83.38L37.39 82.99L35.94 82.68L34.45 82.45L32.91 82.32L31.34 82.27L29.76 82.32L28.23 82.45Z" id="a2oTVuz9"></path></defs><g><g><g><use xlink:href="#dbAWP0mWQ" opacity="1" fill="#4fc08d" fill-opacity="1"></use><g><use xlink:href="#dbAWP0mWQ" opacity="1" fill-opacity="0" stroke="#000000" stroke-width="0" stroke-opacity="1"></use></g></g><g><g><use xlink:href="#b1Z0OIVIEr" opacity="1" fill-opacity="0" stroke="#861818" stroke-width="1" stroke-opacity="1"></use></g></g><g><use xlink:href="#a2oTVuz9" opacity="1" fill="#35495e" fill-opacity="1"></use></g></g></g></svg>
